<svg xmlns="http://www.w3.org/2000/svg" width="842.0" height="622.0" viewBox="0 0 842.0 622.0">
<defs>
  <style>
    text { font-family: monospace; font-size: 11px; }
    .label {{ text-anchor: middle; dominant-baseline: central; fill: white; font-weight: bold; }}
    .dim {{ text-anchor: middle; dominant-baseline: central; fill: #333; font-size: 9px; }}
    .legend {{ font-size: 10px; fill: #333; }}
    .title {{ font-size: 14px; font-weight: bold; fill: #333; }}
  </style>
</defs>

<!-- Bin 0: 1024x1024, efficiency: 38.9% -->

<rect x="40" y="40" width="512.0" height="512.0" fill="#f5f5f5" stroke="#999" stroke-width="2"/>
<g>
  <title>enemy_boss: 256x256 at (0.0,0.0)</title>
  <rect x="40.0" y="40.0" width="128.0" height="128.0" fill="#4B8A3E" opacity="0.85" stroke="#333" stroke-width="1"/>
  <text x="104.0" y="104.0" class="label">enemy_bo</text>
</g>
<g>
  <title>font_atlas: 256x256 at (256.0,0.0)</title>
  <rect x="168.0" y="40.0" width="128.0" height="128.0" fill="#1E6FA1" opacity="0.85" stroke="#333" stroke-width="1"/>
  <text x="232.0" y="104.0" class="label">font_atl</text>
</g>
<g>
  <title>bg_sky: 512x128 at (512.0,0.0)</title>
  <rect x="296.0" y="40.0" width="256.0" height="64.0" fill="#C44536" opacity="0.85" stroke="#333" stroke-width="1"/>
  <text x="424.0" y="72.0" class="label">bg_sky</text>
</g>
<g>
  <title>logo: 384x128 at (512.0,128.0)</title>
  <rect x="296.0" y="104.0" width="192.0" height="64.0" fill="#6B52A3" opacity="0.85" stroke="#333" stroke-width="1"/>
  <text x="392.0" y="136.0" class="label">logo</text>
</g>
<g>
  <title>ui_inventory: 256x128 at (0.0,256.0)</title>
  <rect x="40.0" y="168.0" width="128.0" height="64.0" fill="#D4A03E" opacity="0.85" stroke="#333" stroke-width="1"/>
  <text x="104.0" y="200.0" class="label">ui_inven</text>
</g>
<g>
  <title>ui_minimap: 128x128 at (896.0,128.0)</title>
  <rect x="488.0" y="104.0" width="64.0" height="64.0" fill="#56A65E" opacity="0.85" stroke="#333" stroke-width="1"/>
  <text x="520.0" y="136.0" class="label">ui_minim</text>
</g>
<g>
  <title>bg_mountains: 512x96 at (256.0,256.0)</title>
  <rect x="168.0" y="168.0" width="256.0" height="48.0" fill="#3298B5" opacity="0.85" stroke="#333" stroke-width="1"/>
  <text x="296.0" y="192.0" class="label">bg_mount</text>
</g>
<g>
  <title>fx_explosion: 96x96 at (768.0,256.0)</title>
  <rect x="424.0" y="168.0" width="48.0" height="48.0" fill="#9B5FA3" opacity="0.85" stroke="#333" stroke-width="1"/>
  <text x="448.0" y="192.0" class="label">fx_explo</text>
</g>
<g>
  <title>player_jump: 64x96 at (864.0,256.0)</title>
  <rect x="472.0" y="168.0" width="32.0" height="48.0" fill="#E87F4F" opacity="0.85" stroke="#333" stroke-width="1"/>
  <text x="488.0" y="192.0" class="label">player_j</text>
</g>
<g>
  <title>bg_clouds: 256x64 at (256.0,352.0)</title>
  <rect x="168.0" y="216.0" width="128.0" height="32.0" fill="#2E8B6E" opacity="0.85" stroke="#333" stroke-width="1"/>
  <text x="232.0" y="232.0" class="label">bg_cloud</text>
</g>
<g>
  <title>player_run: 128x64 at (512.0,352.0)</title>
  <rect x="296.0" y="216.0" width="64.0" height="32.0" fill="#5264A4" opacity="0.85" stroke="#333" stroke-width="1"/>
  <text x="328.0" y="232.0" class="label">player_r</text>
</g>
<g>
  <title>player_idle: 64x64 at (928.0,256.0)</title>
  <rect x="504.0" y="168.0" width="32.0" height="32.0" fill="#A13D6B" opacity="0.85" stroke="#333" stroke-width="1"/>
  <text x="520.0" y="184.0" class="label">player_i</text>
</g>
<g>
  <title>fx_smoke: 64x64 at (928.0,320.0)</title>
  <rect x="504.0" y="200.0" width="32.0" height="32.0" fill="#C97B2E" opacity="0.85" stroke="#333" stroke-width="1"/>
  <text x="520.0" y="216.0" class="label">fx_smoke</text>
</g>
<g>
  <title>enemy_slime: 48x48 at (640.0,352.0)</title>
  <rect x="360.0" y="216.0" width="24.0" height="24.0" fill="#4E9E84" opacity="0.85" stroke="#333" stroke-width="1"/>
  <text x="372.0" y="228.0" class="label">enemy_sl</text>
</g>
<g>
  <title>enemy_bat: 32x32 at (992.0,256.0)</title>
  <rect x="536.0" y="168.0" width="16.0" height="16.0" fill="#7B4FA0" opacity="0.85" stroke="#333" stroke-width="1"/>
</g>
<g>
  <title>tile_grass: 32x32 at (992.0,288.0)</title>
  <rect x="536.0" y="184.0" width="16.0" height="16.0" fill="#6E9343" opacity="0.85" stroke="#333" stroke-width="1"/>
</g>
<g>
  <title>tile_stone: 32x32 at (992.0,320.0)</title>
  <rect x="536.0" y="200.0" width="16.0" height="16.0" fill="#4B8A3E" opacity="0.85" stroke="#333" stroke-width="1"/>
</g>
<g>
  <title>tile_water: 32x32 at (688.0,352.0)</title>
  <rect x="384.0" y="216.0" width="16.0" height="16.0" fill="#1E6FA1" opacity="0.85" stroke="#333" stroke-width="1"/>
</g>
<g>
  <title>tile_lava: 32x32 at (720.0,352.0)</title>
  <rect x="400.0" y="216.0" width="16.0" height="16.0" fill="#C44536" opacity="0.85" stroke="#333" stroke-width="1"/>
</g>
<g>
  <title>fx_sparkle: 32x32 at (752.0,352.0)</title>
  <rect x="416.0" y="216.0" width="16.0" height="16.0" fill="#6B52A3" opacity="0.85" stroke="#333" stroke-width="1"/>
</g>
<g>
  <title>icon_sword: 24x24 at (784.0,352.0)</title>
  <rect x="432.0" y="216.0" width="12.0" height="12.0" fill="#D4A03E" opacity="0.85" stroke="#333" stroke-width="1"/>
</g>
<g>
  <title>icon_shield: 24x24 at (808.0,352.0)</title>
  <rect x="444.0" y="216.0" width="12.0" height="12.0" fill="#56A65E" opacity="0.85" stroke="#333" stroke-width="1"/>
</g>
<g>
  <title>icon_potion: 24x24 at (832.0,352.0)</title>
  <rect x="456.0" y="216.0" width="12.0" height="12.0" fill="#3298B5" opacity="0.85" stroke="#333" stroke-width="1"/>
</g>
<g>
  <title>icon_scroll: 24x24 at (856.0,352.0)</title>
  <rect x="468.0" y="216.0" width="12.0" height="12.0" fill="#9B5FA3" opacity="0.85" stroke="#333" stroke-width="1"/>
</g>
<g>
  <title>ui_health: 128x16 at (784.0,376.0)</title>
  <rect x="432.0" y="228.0" width="64.0" height="8.0" fill="#E87F4F" opacity="0.85" stroke="#333" stroke-width="1"/>
</g>
<g>
  <title>ui_mana: 128x16 at (0.0,384.0)</title>
  <rect x="40.0" y="232.0" width="64.0" height="8.0" fill="#2E8B6E" opacity="0.85" stroke="#333" stroke-width="1"/>
</g>
<g>
  <title>icon_gem: 16x16 at (880.0,352.0)</title>
  <rect x="480.0" y="216.0" width="8.0" height="8.0" fill="#5264A4" opacity="0.85" stroke="#333" stroke-width="1"/>
</g>
<g>
  <title>icon_key: 16x16 at (896.0,352.0)</title>
  <rect x="488.0" y="216.0" width="8.0" height="8.0" fill="#A13D6B" opacity="0.85" stroke="#333" stroke-width="1"/>
</g>
<text x="40" y="30" class="title">Bin 0 (1024x1024) — 28 rects, 38.9% efficient</text>
<text x="572.0" y="45" class="title">Legend</text>
<rect x="572.0" y="57" width="12" height="12" fill="#4B8A3E" opacity="0.85" stroke="#333" stroke-width="0.5"/>
<text x="588.0" y="67" class="legend">enemy_boss 256x256 </text>
<rect x="572.0" y="75" width="12" height="12" fill="#1E6FA1" opacity="0.85" stroke="#333" stroke-width="0.5"/>
<text x="588.0" y="85" class="legend">font_atlas 256x256 </text>
<rect x="572.0" y="93" width="12" height="12" fill="#C44536" opacity="0.85" stroke="#333" stroke-width="0.5"/>
<text x="588.0" y="103" class="legend">bg_sky 512x128 </text>
<rect x="572.0" y="111" width="12" height="12" fill="#6B52A3" opacity="0.85" stroke="#333" stroke-width="0.5"/>
<text x="588.0" y="121" class="legend">logo 384x128 </text>
<rect x="572.0" y="129" width="12" height="12" fill="#D4A03E" opacity="0.85" stroke="#333" stroke-width="0.5"/>
<text x="588.0" y="139" class="legend">ui_inventory 256x128 </text>
<rect x="572.0" y="147" width="12" height="12" fill="#56A65E" opacity="0.85" stroke="#333" stroke-width="0.5"/>
<text x="588.0" y="157" class="legend">ui_minimap 128x128 </text>
<rect x="572.0" y="165" width="12" height="12" fill="#3298B5" opacity="0.85" stroke="#333" stroke-width="0.5"/>
<text x="588.0" y="175" class="legend">bg_mountains 512x96 </text>
<rect x="572.0" y="183" width="12" height="12" fill="#9B5FA3" opacity="0.85" stroke="#333" stroke-width="0.5"/>
<text x="588.0" y="193" class="legend">fx_explosion 96x96 </text>
<rect x="572.0" y="201" width="12" height="12" fill="#E87F4F" opacity="0.85" stroke="#333" stroke-width="0.5"/>
<text x="588.0" y="211" class="legend">player_jump 64x96 </text>
<rect x="572.0" y="219" width="12" height="12" fill="#2E8B6E" opacity="0.85" stroke="#333" stroke-width="0.5"/>
<text x="588.0" y="229" class="legend">bg_clouds 256x64 </text>
<rect x="572.0" y="237" width="12" height="12" fill="#5264A4" opacity="0.85" stroke="#333" stroke-width="0.5"/>
<text x="588.0" y="247" class="legend">player_run 128x64 </text>
<rect x="572.0" y="255" width="12" height="12" fill="#A13D6B" opacity="0.85" stroke="#333" stroke-width="0.5"/>
<text x="588.0" y="265" class="legend">player_idle 64x64 </text>
<rect x="572.0" y="273" width="12" height="12" fill="#C97B2E" opacity="0.85" stroke="#333" stroke-width="0.5"/>
<text x="588.0" y="283" class="legend">fx_smoke 64x64 </text>
<rect x="572.0" y="291" width="12" height="12" fill="#4E9E84" opacity="0.85" stroke="#333" stroke-width="0.5"/>
<text x="588.0" y="301" class="legend">enemy_slime 48x48 </text>
<rect x="572.0" y="309" width="12" height="12" fill="#7B4FA0" opacity="0.85" stroke="#333" stroke-width="0.5"/>
<text x="588.0" y="319" class="legend">enemy_bat 32x32 </text>
<rect x="572.0" y="327" width="12" height="12" fill="#6E9343" opacity="0.85" stroke="#333" stroke-width="0.5"/>
<text x="588.0" y="337" class="legend">tile_grass 32x32 </text>
<rect x="572.0" y="345" width="12" height="12" fill="#4B8A3E" opacity="0.85" stroke="#333" stroke-width="0.5"/>
<text x="588.0" y="355" class="legend">tile_stone 32x32 </text>
<rect x="572.0" y="363" width="12" height="12" fill="#1E6FA1" opacity="0.85" stroke="#333" stroke-width="0.5"/>
<text x="588.0" y="373" class="legend">tile_water 32x32 </text>
<rect x="572.0" y="381" width="12" height="12" fill="#C44536" opacity="0.85" stroke="#333" stroke-width="0.5"/>
<text x="588.0" y="391" class="legend">tile_lava 32x32 </text>
<rect x="572.0" y="399" width="12" height="12" fill="#6B52A3" opacity="0.85" stroke="#333" stroke-width="0.5"/>
<text x="588.0" y="409" class="legend">fx_sparkle 32x32 </text>
<rect x="572.0" y="417" width="12" height="12" fill="#D4A03E" opacity="0.85" stroke="#333" stroke-width="0.5"/>
<text x="588.0" y="427" class="legend">icon_sword 24x24 </text>
<rect x="572.0" y="435" width="12" height="12" fill="#56A65E" opacity="0.85" stroke="#333" stroke-width="0.5"/>
<text x="588.0" y="445" class="legend">icon_shield 24x24 </text>
<rect x="572.0" y="453" width="12" height="12" fill="#3298B5" opacity="0.85" stroke="#333" stroke-width="0.5"/>
<text x="588.0" y="463" class="legend">icon_potion 24x24 </text>
<rect x="572.0" y="471" width="12" height="12" fill="#9B5FA3" opacity="0.85" stroke="#333" stroke-width="0.5"/>
<text x="588.0" y="481" class="legend">icon_scroll 24x24 </text>
<rect x="572.0" y="489" width="12" height="12" fill="#E87F4F" opacity="0.85" stroke="#333" stroke-width="0.5"/>
<text x="588.0" y="499" class="legend">ui_health 128x16 </text>
<rect x="572.0" y="507" width="12" height="12" fill="#2E8B6E" opacity="0.85" stroke="#333" stroke-width="0.5"/>
<text x="588.0" y="517" class="legend">ui_mana 128x16 </text>
<rect x="572.0" y="525" width="12" height="12" fill="#5264A4" opacity="0.85" stroke="#333" stroke-width="0.5"/>
<text x="588.0" y="535" class="legend">icon_gem 16x16 </text>
<rect x="572.0" y="543" width="12" height="12" fill="#A13D6B" opacity="0.85" stroke="#333" stroke-width="0.5"/>
<text x="588.0" y="553" class="legend">icon_key 16x16 </text>
</svg>