<svg xmlns="http://www.w3.org/2000/svg" width="690.0" height="350.0" viewBox="0 0 690.0 350.0">
<defs>
  <style>
    text { font-family: monospace; font-size: 11px; }
    .label {{ text-anchor: middle; dominant-baseline: central; fill: white; font-weight: bold; }}
    .dim {{ text-anchor: middle; dominant-baseline: central; fill: #333; font-size: 9px; }}
    .legend {{ font-size: 10px; fill: #333; }}
    .title {{ font-size: 14px; font-weight: bold; fill: #333; }}
  </style>
</defs>

<!-- Bin 0: 120x80, efficiency: 48.4% -->

<rect x="40" y="40" width="360.0" height="240.0" fill="#f5f5f5" stroke="#999" stroke-width="2"/>
<g opacity="0.15" stroke="#666" stroke-width="0.5">
  <line x1="40" y1="40" x2="40" y2="280.0"/>
  <line x1="70.0" y1="40" x2="70.0" y2="280.0"/>
  <line x1="100.0" y1="40" x2="100.0" y2="280.0"/>
  <line x1="130.0" y1="40" x2="130.0" y2="280.0"/>
  <line x1="160.0" y1="40" x2="160.0" y2="280.0"/>
  <line x1="190.0" y1="40" x2="190.0" y2="280.0"/>
  <line x1="220.0" y1="40" x2="220.0" y2="280.0"/>
  <line x1="250.0" y1="40" x2="250.0" y2="280.0"/>
  <line x1="280.0" y1="40" x2="280.0" y2="280.0"/>
  <line x1="310.0" y1="40" x2="310.0" y2="280.0"/>
  <line x1="340.0" y1="40" x2="340.0" y2="280.0"/>
  <line x1="370.0" y1="40" x2="370.0" y2="280.0"/>
  <line x1="400.0" y1="40" x2="400.0" y2="280.0"/>
  <line x1="40" y1="40" x2="400.0" y2="40"/>
  <line x1="40" y1="70.0" x2="400.0" y2="70.0"/>
  <line x1="40" y1="100.0" x2="400.0" y2="100.0"/>
  <line x1="40" y1="130.0" x2="400.0" y2="130.0"/>
  <line x1="40" y1="160.0" x2="400.0" y2="160.0"/>
  <line x1="40" y1="190.0" x2="400.0" y2="190.0"/>
  <line x1="40" y1="220.0" x2="400.0" y2="220.0"/>
  <line x1="40" y1="250.0" x2="400.0" y2="250.0"/>
  <line x1="40" y1="280.0" x2="400.0" y2="280.0"/>
</g>
<g>
  <title>Block-A: 40x30 at (0.0,0.0)</title>
  <rect x="40.0" y="40.0" width="120.0" height="90.0" fill="#E74C3C" opacity="0.85" stroke="#333" stroke-width="1"/>
  <text x="100.0" y="85.0" class="label">Block-A</text>
  <text x="100.0" y="126.0" class="dim">40x30</text>
</g>
<g>
  <title>Block-B: 30x25 at (0.0,30.0)</title>
  <rect x="40.0" y="130.0" width="90.0" height="75.0" fill="#3498DB" opacity="0.85" stroke="#333" stroke-width="1"/>
  <text x="85.0" y="167.5" class="label">Block-B</text>
  <text x="85.0" y="201.0" class="dim">30x25</text>
</g>
<g>
  <title>Block-G: 30x20 at (0.0,55.0)</title>
  <rect x="40.0" y="205.0" width="90.0" height="60.0" fill="#1ABC9C" opacity="0.85" stroke="#333" stroke-width="1"/>
  <text x="85.0" y="235.0" class="label">Block-G</text>
  <text x="85.0" y="261.0" class="dim">30x20</text>
</g>
<g>
  <title>Block-D: 35x15 at (30.0,30.0)</title>
  <rect x="130.0" y="130.0" width="105.0" height="45.0" fill="#F1C40F" opacity="0.85" stroke="#333" stroke-width="1"/>
  <text x="182.5" y="152.5" class="label">Block-D</text>
  <text x="182.5" y="171.0" class="dim">35x15</text>
</g>
<g>
  <title>Block-C: 25x20 at (40.0,0.0)</title>
  <rect x="160.0" y="40.0" width="75.0" height="60.0" fill="#2ECC71" opacity="0.85" stroke="#333" stroke-width="1"/>
  <text x="197.5" y="70.0" class="label">Block-C</text>
  <text x="197.5" y="96.0" class="dim">25x20</text>
</g>
<g>
  <title>Block-E: 20x20 at (30.0,45.0)</title>
  <rect x="130.0" y="175.0" width="60.0" height="60.0" fill="#9B59B6" opacity="0.85" stroke="#333" stroke-width="1"/>
  <text x="160.0" y="205.0" class="label">Block-E</text>
  <text x="160.0" y="231.0" class="dim">20x20</text>
</g>
<g>
  <title>Block-F: 15x25 at (50.0,45.0)</title>
  <rect x="190.0" y="175.0" width="45.0" height="75.0" fill="#E67E22" opacity="0.85" stroke="#333" stroke-width="1"/>
  <text x="212.5" y="212.5" class="label">Block-F</text>
  <text x="212.5" y="246.0" class="dim">15x25</text>
</g>
<g>
  <title>Block-H: 20x15 at (30.0,65.0)</title>
  <rect x="130.0" y="235.0" width="60.0" height="45.0" fill="#34495E" opacity="0.85" stroke="#333" stroke-width="1"/>
  <text x="160.0" y="257.5" class="label">Block-H</text>
  <text x="160.0" y="276.0" class="dim">20x15</text>
</g>
<text x="40" y="30" class="title">Bin 0 (120x80) — 8 rects, 48.4% efficient</text>
<text x="420.0" y="45" class="title">Legend</text>
<rect x="420.0" y="57" width="12" height="12" fill="#E74C3C" opacity="0.85" stroke="#333" stroke-width="0.5"/>
<text x="436.0" y="67" class="legend">Block-A 40x30 </text>
<rect x="420.0" y="75" width="12" height="12" fill="#3498DB" opacity="0.85" stroke="#333" stroke-width="0.5"/>
<text x="436.0" y="85" class="legend">Block-B 30x25 </text>
<rect x="420.0" y="93" width="12" height="12" fill="#1ABC9C" opacity="0.85" stroke="#333" stroke-width="0.5"/>
<text x="436.0" y="103" class="legend">Block-G 30x20 </text>
<rect x="420.0" y="111" width="12" height="12" fill="#F1C40F" opacity="0.85" stroke="#333" stroke-width="0.5"/>
<text x="436.0" y="121" class="legend">Block-D 35x15 </text>
<rect x="420.0" y="129" width="12" height="12" fill="#2ECC71" opacity="0.85" stroke="#333" stroke-width="0.5"/>
<text x="436.0" y="139" class="legend">Block-C 25x20 </text>
<rect x="420.0" y="147" width="12" height="12" fill="#9B59B6" opacity="0.85" stroke="#333" stroke-width="0.5"/>
<text x="436.0" y="157" class="legend">Block-E 20x20 </text>
<rect x="420.0" y="165" width="12" height="12" fill="#E67E22" opacity="0.85" stroke="#333" stroke-width="0.5"/>
<text x="436.0" y="175" class="legend">Block-F 15x25 </text>
<rect x="420.0" y="183" width="12" height="12" fill="#34495E" opacity="0.85" stroke="#333" stroke-width="0.5"/>
<text x="436.0" y="193" class="legend">Block-H 20x15 </text>
</svg>